<svg width="96" height="27" viewBox="0 0 96 27" fill="none" xmlns="http://www.w3.org/2000/svg">
<path d="M13.5 27C20.9558 27 27 20.9558 27 13.5C27 6.04416 20.9558 0 13.5 0C6.04416 0 0 6.04416 0 13.5C0 20.9558 6.04416 27 13.5 27Z" fill="url(#paint0_linear_29_29)"/>
<path d="M6.42859 9.1351C10.6075 8.0893 14.7766 7.046 18.9559 6C19.1752 6.848 19.3923 7.6879 19.6118 8.5371C16.3486 9.3537 13.0907 10.1692 9.83289 10.9846C9.83359 10.9898 9.83419 10.9949 9.83499 11.0001H19.9228C19.9245 11.037 19.9274 11.0668 19.9274 11.0969C19.9276 13.2878 19.9287 15.4789 19.927 17.6698C19.926 18.8933 18.9172 19.9325 17.6794 19.9896C17.5589 19.9952 17.4381 19.9986 17.3174 19.9986C14.6832 19.9992 12.049 19.9995 9.41499 19.9986C8.75659 19.9984 8.18139 19.7789 7.71139 19.3255C7.28359 18.9126 7.04139 18.4063 7.00429 17.8126C6.99689 17.6941 6.99459 17.5752 6.99459 17.4565C6.99399 15.5189 6.99309 13.5814 6.99589 11.644C6.99629 11.4423 6.97379 11.2479 6.92129 11.0522C6.75669 10.4395 6.60209 9.8244 6.44379 9.21C6.43849 9.1894 6.43529 9.1682 6.42859 9.1351ZM7.60489 13.6276V13.7292C7.60489 15.0375 7.60469 16.3459 7.60569 17.6541C7.60569 17.7256 7.61199 17.7977 7.62279 17.8685C7.76159 18.7735 8.50039 19.3983 9.43049 19.3983C12.0963 19.3983 14.7622 19.3983 17.4281 19.398C17.5011 19.398 17.5742 19.3946 17.6469 19.3893C18.5983 19.3211 19.3167 18.5605 19.3167 17.621C19.3167 16.3282 19.3167 15.0357 19.3167 13.7429V13.6276H7.60489ZM9.47049 11.6036C9.49059 11.6357 9.50239 11.6568 9.51619 11.6763C9.81609 12.1019 10.1171 12.5267 10.4147 12.9539C10.4495 13.0038 10.4836 13.0237 10.5453 13.0232C10.9044 13.0203 11.2635 13.0218 11.6225 13.0215C11.6496 13.0215 11.6768 13.0177 11.7073 13.0153C11.7006 12.998 11.6991 12.9882 11.6939 12.9809C11.3824 12.5369 11.0714 12.0923 10.7566 11.6504C10.7379 11.6241 10.6894 11.6062 10.6543 11.6053C10.4605 11.601 10.2666 11.6032 10.0728 11.6032C9.87699 11.6032 9.68109 11.6036 9.47049 11.6036ZM14.6032 13.0218C14.5813 12.9858 14.5696 12.9638 14.5555 12.9437C14.2552 12.5175 13.9536 12.0923 13.6552 11.6648C13.6218 11.6171 13.5873 11.6021 13.5308 11.6023C13.1681 11.6046 12.8053 11.6034 12.4426 11.6036C12.419 11.6036 12.3953 11.6059 12.3602 11.6077C12.3772 11.634 12.3865 11.6494 12.3966 11.6639C12.6725 12.0572 12.9565 12.4452 13.2204 12.8462C13.3149 12.9897 13.4181 13.032 13.5838 13.0256C13.9169 13.0126 14.251 13.0218 14.6032 13.0218ZM15.2443 11.6036C15.2651 11.6367 15.2767 11.6575 15.2903 11.6771C15.5906 12.103 15.8922 12.5281 16.19 12.9555C16.2253 13.0064 16.2614 13.0235 16.3217 13.023C16.6779 13.0205 17.0341 13.0218 17.3903 13.0215C17.418 13.0215 17.4455 13.0181 17.4814 13.0158C17.4709 12.9946 17.4659 12.9803 17.4577 12.9685C17.1494 12.529 16.8415 12.0893 16.5302 11.6519C16.5114 11.6256 16.4641 11.6062 16.4297 11.6055C16.2232 11.6012 16.0163 11.6034 15.8095 11.6034C15.6263 11.6034 15.443 11.6036 15.2443 11.6036ZM17.0964 8.5442C17.0757 8.5228 17.0679 8.513 17.0586 8.505C16.6476 8.1524 16.2369 7.7993 15.824 7.4488C15.8032 7.4312 15.7605 7.4237 15.7328 7.4304C15.3634 7.52 14.9948 7.6132 14.6259 7.7056C14.6124 7.709 14.6 7.7159 14.5652 7.7298C14.5948 7.749 14.612 7.7576 14.6261 7.7696C14.9782 8.07 15.3372 8.3632 15.6782 8.6753C15.82 8.8051 15.9441 8.8502 16.1352 8.7906C16.4456 8.6937 16.7659 8.6272 17.0964 8.5442ZM11.4986 9.9453C11.4836 9.9258 11.4778 9.9147 11.4691 9.907C11.0647 9.562 10.6591 9.2185 10.2572 8.8708C10.2072 8.8276 10.1683 8.8209 10.1064 8.837C9.80609 8.9153 9.50429 8.9878 9.20329 9.0628C9.13379 9.0801 9.06489 9.099 8.97729 9.1221C9.07609 9.2072 9.16129 9.2803 9.24619 9.3533C9.57319 9.6341 9.89949 9.9157 10.2286 10.194C10.2572 10.2183 10.309 10.2395 10.3424 10.2316C10.7242 10.1407 11.1046 10.044 11.4986 9.9453ZM11.7861 8.4169C11.7966 8.4366 11.7982 8.4435 11.8026 8.4471C12.2155 8.8019 12.6278 9.1573 13.0436 9.5089C13.0703 9.5314 13.1268 9.5365 13.164 9.5276C13.5122 9.4442 13.8591 9.3562 14.2063 9.269C14.235 9.2619 14.2627 9.2517 14.3029 9.2393C13.8919 8.8874 13.4905 8.5485 13.0961 8.2022C13.013 8.1293 12.9401 8.1147 12.841 8.1511C12.7733 8.1761 12.7002 8.187 12.6295 8.2048C12.3508 8.2749 12.0721 8.3447 11.7861 8.4169ZM7.60949 13.0162H8.81499C8.81419 13.0048 8.81589 12.9974 8.81309 12.9933C8.49619 12.5418 8.17929 12.0903 7.86069 11.6397C7.84849 11.6224 7.82229 11.6068 7.80149 11.6053C7.73929 11.6008 7.67649 11.6036 7.60969 11.6036L7.60949 13.0162ZM7.52319 10.9402C7.92029 10.8407 8.30799 10.7436 8.72089 10.6401C8.68539 10.6142 8.66669 10.6025 8.65009 10.5883C8.26939 10.2639 7.88889 9.9393 7.50869 9.6146C7.38169 9.5062 7.33609 9.5015 7.17269 9.5868C7.28879 10.0348 7.40499 10.4838 7.52319 10.9402ZM18.1289 11.607C18.4405 12.0493 18.7465 12.4745 19.0405 12.9076C19.1138 13.0156 19.1924 13.0427 19.3106 13.011V11.6068L18.1289 11.607ZM18.5126 6.7325C18.1303 6.8287 17.7588 6.922 17.3871 7.0154L17.3783 7.042C17.3947 7.052 17.4127 7.0601 17.427 7.0723C17.8052 7.3944 18.1868 7.7125 18.5581 8.042C18.6562 8.1289 18.74 8.1609 18.8633 8.0891C18.7474 7.6408 18.6308 7.1893 18.5126 6.7325Z" fill="white"/>
<path d="M12.3951 14.7749C12.4152 14.7843 12.444 14.7954 12.4707 14.8104C13.2734 15.2657 14.076 15.7213 14.8785 16.1768C15.0242 16.2594 15.1698 16.3422 15.3153 16.4253C15.4252 16.4882 15.4256 16.5721 15.3143 16.6354C14.4984 17.0995 13.6821 17.5629 12.8661 18.0264C12.7341 18.1014 12.6026 18.1769 12.4699 18.2507C12.3562 18.314 12.2827 18.2745 12.2827 18.1481C12.2821 17.0682 12.2827 15.9882 12.2819 14.9082C12.2819 14.8372 12.3027 14.786 12.3951 14.7749Z" fill="white"/>
<path d="M28.7656 15.7188L28.7734 15.4922C28.8307 13.9349 29.224 12.4635 29.9531 11.0781C30.625 9.8125 31.4714 8.78906 32.4922 8.00781C33.5026 7.23698 34.487 6.85156 35.4453 6.85156C36.1745 6.85156 36.75 7.10417 37.1719 7.60938C37.5312 8.04688 37.7109 8.58333 37.7109 9.21875C37.7109 9.97917 37.4323 10.7292 36.875 11.4688C36.5521 11.8958 36.2083 12.2031 35.8438 12.3906C35.6719 12.4844 35.5104 12.5312 35.3594 12.5312C35.2135 12.5312 35.0781 12.5 34.9531 12.4375C34.8281 12.375 34.7188 12.2969 34.625 12.2031C34.4323 12 34.3359 11.8177 34.3359 11.6562C34.3359 11.4948 34.3776 11.3828 34.4609 11.3203C35.3151 10.7057 35.8958 10.0729 36.2031 9.42188C36.3229 9.17188 36.3828 8.92708 36.3828 8.6875C36.3828 8.18229 36.1432 7.92969 35.6641 7.92969C34.9141 7.92969 34.1406 8.33854 33.3438 9.15625C32.599 9.91146 31.974 10.8594 31.4688 12C30.9427 13.1719 30.6641 14.2474 30.6328 15.2266L30.625 15.5234C30.625 16.6953 30.8724 17.4635 31.3672 17.8281C31.5443 17.9583 31.7552 18.0234 32 18.0234C32.25 18.0234 32.4844 17.9922 32.7031 17.9297C32.9219 17.8672 33.1406 17.7812 33.3594 17.6719C33.7135 17.4896 34.1667 17.1745 34.7188 16.7266C34.8854 16.5964 35.0234 16.6146 35.1328 16.7812C35.2266 16.9167 35.2734 17.0729 35.2734 17.25C35.2734 17.5469 35.2318 17.75 35.1484 17.8594C35.0703 17.9635 34.9323 18.0885 34.7344 18.2344C34.5417 18.3802 34.3047 18.5156 34.0234 18.6406C33.3672 18.9323 32.724 19.0781 32.0938 19.0781C31.4635 19.0781 30.9557 19.0026 30.5703 18.8516C30.1849 18.6953 29.8594 18.474 29.5938 18.1875C29.0417 17.5833 28.7656 16.7604 28.7656 15.7188ZM41.3281 9.08594C41.2135 9.20573 41.0833 9.30469 40.9375 9.38281C40.7917 9.45573 40.638 9.5026 40.4766 9.52344C40.3151 9.53906 40.1615 9.51302 40.0156 9.44531C39.875 9.3776 39.7526 9.28125 39.6484 9.15625C39.4245 8.89583 39.3125 8.63281 39.3125 8.36719C39.3125 8.10156 39.3542 7.90365 39.4375 7.77344C39.526 7.63802 39.6354 7.52865 39.7656 7.44531C40.0156 7.28385 40.25 7.20312 40.4688 7.20312C40.6927 7.20312 40.8646 7.21875 40.9844 7.25C41.1094 7.28125 41.224 7.33333 41.3281 7.40625C41.5833 7.57812 41.7109 7.78906 41.7109 8.03906C41.7109 8.28385 41.6745 8.48958 41.6016 8.65625C41.5339 8.81771 41.4427 8.96094 41.3281 9.08594ZM39.7266 17.5391C39.862 17.5391 39.9297 17.6276 39.9297 17.8047C39.9297 18.0391 39.8229 18.2812 39.6094 18.5312C39.2969 18.8958 38.8776 19.0781 38.3516 19.0781C37.7474 19.0781 37.3333 18.8333 37.1094 18.3438C37.026 18.1719 36.9844 17.9635 36.9844 17.7188C36.9844 17.474 37.026 17.2031 37.1094 16.9062C37.1979 16.6042 37.3047 16.2891 37.4297 15.9609C37.5599 15.6276 37.7005 15.2917 37.8516 14.9531L38.2656 13.9688C38.5677 13.2344 38.7188 12.75 38.7188 12.5156C38.7188 12.2812 38.6927 12.1276 38.6406 12.0547C38.5938 11.9766 38.5417 11.9167 38.4844 11.875L38.3281 11.7656C38.276 11.7292 38.25 11.6667 38.25 11.5781C38.25 11.4844 38.2839 11.3958 38.3516 11.3125C38.4245 11.2292 38.5182 11.1562 38.6328 11.0938C38.8672 10.974 39.1406 10.9141 39.4531 10.9141C40.2188 10.9141 40.6016 11.1146 40.6016 11.5156C40.6016 11.9844 40.4792 12.5208 40.2344 13.125C39.9896 13.724 39.7812 14.2083 39.6094 14.5781L39.1406 15.6562C38.7969 16.4479 38.625 17.0182 38.625 17.3672C38.625 17.5964 38.7396 17.7109 38.9688 17.7109C39.1927 17.7109 39.362 17.6823 39.4766 17.625C39.5911 17.5677 39.6745 17.5391 39.7266 17.5391ZM47.3203 12.3906C47.1589 12.3906 46.9297 12.5469 46.6328 12.8594C46.3359 13.1667 46.0781 13.4479 45.8594 13.7031L45.1953 14.5L43.9141 16.1328C43.612 16.7057 43.375 17.1823 43.2031 17.5625L42.7812 18.4688C42.6719 18.6927 42.5755 18.8516 42.4922 18.9453C42.4141 19.0339 42.3047 19.0781 42.1641 19.0781C42.0286 19.0781 41.8958 19.0521 41.7656 19C41.6406 18.9531 41.5312 18.8906 41.4375 18.8125C41.2396 18.6458 41.1406 18.4635 41.1406 18.2656C41.1406 18.1875 41.1979 18.0339 41.3125 17.8047L41.6094 17.1719C41.7031 16.9844 41.8125 16.7448 41.9375 16.4531L42.375 15.3828C42.9896 13.8464 43.2969 12.8542 43.2969 12.4062C43.2969 12.1667 43.2188 11.9896 43.0625 11.875L42.9062 11.7656C42.8542 11.7292 42.8281 11.6667 42.8281 11.5781C42.8281 11.4844 42.862 11.3958 42.9297 11.3125C43.0026 11.2292 43.0964 11.1562 43.2109 11.0938C43.4453 10.974 43.6797 10.9141 43.9141 10.9141C44.1536 10.9141 44.3385 10.9401 44.4688 10.9922C44.599 11.0443 44.7083 11.1146 44.7969 11.2031C44.9896 11.3854 45.0859 11.5755 45.0859 11.7734C45.0859 11.9714 45.0599 12.1719 45.0078 12.375C44.9609 12.5729 44.8984 12.776 44.8203 12.9844C44.7474 13.1875 44.6693 13.388 44.5859 13.5859C44.5026 13.7839 44.4271 13.9557 44.3594 14.1016L44.2031 14.4375C44.1615 14.5208 44.151 14.5469 44.1719 14.5156C44.75 13.7135 45.1302 13.1979 45.3125 12.9688L45.8594 12.3125C46.2604 11.8438 46.5755 11.5339 46.8047 11.3828C47.2682 11.0703 47.6328 10.9141 47.8984 10.9141C48.1641 10.9141 48.388 10.9479 48.5703 11.0156C48.7526 11.0833 48.9115 11.1797 49.0469 11.3047C49.3333 11.5703 49.4766 11.9089 49.4766 12.3203C49.4766 12.7318 49.3828 13.1615 49.1953 13.6094C49.0078 14.0573 48.8438 14.4219 48.7031 14.7031C48.5677 14.9792 48.4375 15.2604 48.3125 15.5469C47.9219 16.4167 47.7266 17.0495 47.7266 17.4453C47.7266 17.6224 47.8672 17.7109 48.1484 17.7109C48.3672 17.7109 48.5651 17.6641 48.7422 17.5703C48.9245 17.4766 49.0417 17.4297 49.0938 17.4297C49.2031 17.4297 49.2578 17.4844 49.2578 17.5938C49.2578 18.0573 49.0208 18.4453 48.5469 18.7578C48.2292 18.9714 47.9375 19.0781 47.6719 19.0781C47.4062 19.0781 47.1849 19.0495 47.0078 18.9922C46.8359 18.9349 46.6823 18.8438 46.5469 18.7188C46.2396 18.4427 46.0859 18.0573 46.0859 17.5625C46.0859 16.9583 46.276 16.2031 46.6562 15.2969C46.9323 14.6771 47.1276 14.2526 47.2422 14.0234L47.5078 13.4688C47.6693 13.1354 47.75 12.8724 47.75 12.6797C47.75 12.487 47.6068 12.3906 47.3203 12.3906ZM50.75 16.2656C50.7708 15.8125 50.8464 15.3802 50.9766 14.9688C51.1068 14.5521 51.2812 14.151 51.5 13.7656C51.7188 13.375 51.974 13.0078 52.2656 12.6641C52.5625 12.3151 52.8828 12.0104 53.2266 11.75C53.9714 11.1927 54.724 10.9141 55.4844 10.9141C56.375 10.9141 56.9688 11.2812 57.2656 12.0156C57.3698 12.2656 57.4193 12.5625 57.4141 12.9062C57.4089 13.2448 57.3438 13.5599 57.2188 13.8516C57.0938 14.138 56.9193 14.401 56.6953 14.6406C56.4766 14.875 56.2135 15.0859 55.9062 15.2734C55.6042 15.4609 55.2734 15.6198 54.9141 15.75C54.1745 16.0104 53.3828 16.1458 52.5391 16.1562C52.5182 16.2292 52.5052 16.3385 52.5 16.4844C52.4948 16.6302 52.5104 16.7943 52.5469 16.9766C52.5833 17.1536 52.6458 17.3125 52.7344 17.4531C52.9219 17.7656 53.1927 17.9219 53.5469 17.9219C54.151 17.9219 54.7396 17.7448 55.3125 17.3906C55.5156 17.2708 55.6797 17.1484 55.8047 17.0234C55.9349 16.8932 56.0469 16.8281 56.1406 16.8281C56.2344 16.8281 56.3151 16.8854 56.3828 17C56.4557 17.1094 56.4922 17.2344 56.4922 17.375C56.4922 17.651 56.4141 17.8906 56.2578 18.0938C55.6016 18.75 54.625 19.0781 53.3281 19.0781C52.5625 19.0781 51.9479 18.849 51.4844 18.3906C50.9635 17.8698 50.7188 17.1615 50.75 16.2656ZM55.3125 11.9531C54.7656 11.9531 54.2396 12.3281 53.7344 13.0781C53.3073 13.724 52.9635 14.4896 52.7031 15.375C53.5729 15.2865 54.3281 14.9427 54.9688 14.3438C55.5573 13.7812 55.8516 13.2422 55.8516 12.7266C55.8516 12.2109 55.6719 11.9531 55.3125 11.9531ZM59.2969 18.2578C59.1823 18.0339 59.0964 17.7969 59.0391 17.5469C58.9818 17.2917 58.9531 17.026 58.9531 16.75C58.9531 16.4688 59 16.099 59.0938 15.6406C59.1927 15.1823 59.3255 14.7005 59.4922 14.1953C59.6589 13.6849 59.8516 13.1641 60.0703 12.6328C60.2943 12.1016 60.5312 11.5833 60.7812 11.0781C61.2917 10.026 61.7995 9.11458 62.3047 8.34375H62.2188C61.599 8.34375 61.0234 8.48438 60.4922 8.76562C60.362 8.86458 60.237 8.91406 60.1172 8.91406C59.8672 8.91406 59.625 8.79167 59.3906 8.54688C58.849 7.97396 59.1719 7.5 60.3594 7.125C60.9167 6.94271 61.3646 6.85156 61.7031 6.85156C62.0469 6.85156 62.3229 6.90625 62.5312 7.01562C62.7396 7.11979 62.9167 7.24479 63.0625 7.39062C63.2917 7.61979 63.4531 7.84635 63.5469 8.07031C63.6458 8.29427 63.6953 8.49219 63.6953 8.66406C63.6953 8.83073 63.6432 9.05729 63.5391 9.34375C63.4401 9.625 63.3125 9.92708 63.1562 10.25L62.625 11.2812C62.4375 11.6406 62.25 12.0182 62.0625 12.4141C61.875 12.8099 61.6875 13.2057 61.5 13.6016C61.3125 13.9974 61.1458 14.3828 61 14.7578C60.6823 15.5964 60.5234 16.3073 60.5234 16.8906C60.5234 17.2448 60.5573 17.5365 60.625 17.7656C60.8542 17.401 61.1354 17.0208 61.4688 16.625L62.5625 15.3984C63.8281 14.0339 64.651 13.1276 65.0312 12.6797C65.9219 11.6328 66.6042 10.6458 67.0781 9.71875C67.2708 9.34896 67.3672 9.01302 67.3672 8.71094C67.3672 8.15365 67.2135 7.73438 66.9062 7.45312C66.7969 7.34375 66.7812 7.21094 66.8594 7.05469C66.9427 6.89844 67.026 6.78125 67.1094 6.70312C67.3125 6.52083 67.5417 6.42969 67.7969 6.42969C68.0521 6.42969 68.2682 6.48177 68.4453 6.58594C68.6224 6.6901 68.7656 6.82292 68.875 6.98438C69.099 7.30208 69.2109 7.69792 69.2109 8.17188C69.2109 8.64062 69.1094 9.13802 68.9062 9.66406C68.7083 10.1901 68.4453 10.7057 68.1172 11.2109C67.7943 11.7109 67.4245 12.1979 67.0078 12.6719C66.5964 13.1406 66.1745 13.5885 65.7422 14.0156L63.3828 16.2422C62.6693 16.9609 62.1927 17.4531 61.9531 17.7188C61.4948 18.2292 61.2005 18.5651 61.0703 18.7266C60.9401 18.888 60.8229 18.9844 60.7188 19.0156C60.6146 19.0469 60.474 19.0625 60.2969 19.0625C60.1198 19.0625 59.9375 18.9844 59.75 18.8281C59.5677 18.6719 59.4167 18.4818 59.2969 18.2578ZM67.7031 16.2656C67.724 15.8125 67.7995 15.3802 67.9297 14.9688C68.0599 14.5521 68.2344 14.151 68.4531 13.7656C68.6719 13.375 68.9271 13.0078 69.2188 12.6641C69.5156 12.3151 69.8359 12.0104 70.1797 11.75C70.9245 11.1927 71.6771 10.9141 72.4375 10.9141C73.3281 10.9141 73.9219 11.2812 74.2188 12.0156C74.3229 12.2656 74.3724 12.5625 74.3672 12.9062C74.362 13.2448 74.2969 13.5599 74.1719 13.8516C74.0469 14.138 73.8724 14.401 73.6484 14.6406C73.4297 14.875 73.1667 15.0859 72.8594 15.2734C72.5573 15.4609 72.2266 15.6198 71.8672 15.75C71.1276 16.0104 70.3359 16.1458 69.4922 16.1562C69.4714 16.2292 69.4583 16.3385 69.4531 16.4844C69.4479 16.6302 69.4635 16.7943 69.5 16.9766C69.5365 17.1536 69.599 17.3125 69.6875 17.4531C69.875 17.7656 70.1458 17.9219 70.5 17.9219C71.1042 17.9219 71.6927 17.7448 72.2656 17.3906C72.4688 17.2708 72.6328 17.1484 72.7578 17.0234C72.888 16.8932 73 16.8281 73.0938 16.8281C73.1875 16.8281 73.2682 16.8854 73.3359 17C73.4089 17.1094 73.4453 17.2344 73.4453 17.375C73.4453 17.651 73.3672 17.8906 73.2109 18.0938C72.5547 18.75 71.5781 19.0781 70.2812 19.0781C69.5156 19.0781 68.901 18.849 68.4375 18.3906C67.9167 17.8698 67.6719 17.1615 67.7031 16.2656ZM72.2656 11.9531C71.7188 11.9531 71.1927 12.3281 70.6875 13.0781C70.2604 13.724 69.9167 14.4896 69.6562 15.375C70.526 15.2865 71.2812 14.9427 71.9219 14.3438C72.5104 13.7812 72.8047 13.2422 72.8047 12.7266C72.8047 12.2109 72.625 11.9531 72.2656 11.9531ZM75.2031 18.8125C75.099 18.7344 75.0156 18.6484 74.9531 18.5547C74.8906 18.4557 74.8568 18.3724 74.8516 18.3047C74.8464 18.2318 74.8594 18.1458 74.8906 18.0469C74.9271 17.9427 74.974 17.8177 75.0312 17.6719C76.0938 15.0573 76.625 13.3021 76.625 12.4062C76.6094 12.1562 76.5234 11.9792 76.3672 11.875L76.2109 11.7656C76.1641 11.7292 76.138 11.6667 76.1328 11.5781C76.1328 11.4844 76.1667 11.3958 76.2344 11.3125C76.3021 11.2292 76.3906 11.1562 76.5 11.0938C76.724 10.974 76.9531 10.9141 77.1875 10.9141C77.4271 10.9141 77.612 10.9401 77.7422 10.9922C77.8776 11.0443 77.9922 11.1146 78.0859 11.2031C78.2839 11.3906 78.3828 11.5885 78.3828 11.7969C78.388 12.0052 78.3646 12.2161 78.3125 12.4297C78.2656 12.6432 78.2083 12.8542 78.1406 13.0625C78.0729 13.2656 78.0052 13.4609 77.9375 13.6484C77.8698 13.8307 77.8255 13.9661 77.8047 14.0547C77.763 14.237 77.7474 14.3516 77.7578 14.3984C77.8828 14.2891 77.9583 14.1823 77.9844 14.0781L78.2891 13.5C78.9661 12.2812 79.6276 11.474 80.2734 11.0781C80.4609 10.9688 80.6849 10.9141 80.9453 10.9141C81.2109 10.9141 81.4245 11.0078 81.5859 11.1953C81.7474 11.3776 81.8307 11.5807 81.8359 11.8047C81.8464 12.0286 81.8307 12.2161 81.7891 12.3672C81.7526 12.513 81.6953 12.651 81.6172 12.7812C81.4453 13.0729 81.237 13.2188 80.9922 13.2188C80.9245 13.2188 80.862 13.1953 80.8047 13.1484L80.6328 13C80.4609 12.849 80.2943 12.7734 80.1328 12.7734C79.9766 12.7734 79.7839 12.8776 79.5547 13.0859C79.3307 13.2943 79.0964 13.5625 78.8516 13.8906C78.0286 14.9792 77.3568 16.1979 76.8359 17.5469L76.4922 18.4531C76.4036 18.6771 76.3255 18.8385 76.2578 18.9375C76.1901 19.0312 76.0885 19.0781 75.9531 19.0781C75.8229 19.0781 75.6901 19.0521 75.5547 19C75.4245 18.9531 75.3073 18.8906 75.2031 18.8125ZM81.3281 17.625C81.3281 17.4635 81.362 17.3151 81.4297 17.1797C81.5026 17.0391 81.5911 16.9219 81.6953 16.8281C81.9141 16.625 82.1432 16.5234 82.3828 16.5234C82.5911 16.5234 82.6953 16.6302 82.6953 16.8438C82.6953 17.3854 82.875 17.763 83.2344 17.9766C83.3646 18.0547 83.5 18.0938 83.6406 18.0938C83.7812 18.0938 83.901 18.0781 84 18.0469C84.099 18.0156 84.1901 17.9661 84.2734 17.8984C84.4609 17.7474 84.5547 17.5677 84.5547 17.3594C84.5547 17.151 84.5078 16.9609 84.4141 16.7891C84.3203 16.612 84.2031 16.4271 84.0625 16.2344L83.6172 15.6094C82.9922 14.776 82.6797 14.0078 82.6797 13.3047C82.6797 12.7214 82.9271 12.1927 83.4219 11.7188C83.9844 11.1823 84.7057 10.9141 85.5859 10.9141C86.3568 10.9141 86.9583 11.1042 87.3906 11.4844C87.7448 11.7917 87.9219 12.1432 87.9219 12.5391C87.9219 12.9505 87.7656 13.2786 87.4531 13.5234C87.1719 13.7422 86.8906 13.8229 86.6094 13.7656C86.4844 13.7396 86.388 13.6771 86.3203 13.5781C86.2526 13.474 86.2396 13.3568 86.2812 13.2266C86.3229 13.0964 86.3438 12.9609 86.3438 12.8203C86.3438 12.6797 86.3177 12.5495 86.2656 12.4297C86.2135 12.3099 86.1432 12.2083 86.0547 12.125C85.8724 11.9531 85.6797 11.8672 85.4766 11.8672C85.2786 11.8672 85.1146 11.8906 84.9844 11.9375C84.8542 11.9792 84.7396 12.0417 84.6406 12.125C84.4375 12.3125 84.3359 12.5443 84.3359 12.8203C84.3359 13.0911 84.3828 13.3255 84.4766 13.5234C84.5703 13.7214 84.6849 13.9193 84.8203 14.1172C84.9609 14.3151 85.112 14.5156 85.2734 14.7188C85.4349 14.9219 85.5833 15.1354 85.7188 15.3594C86.0469 15.8854 86.2109 16.349 86.2109 16.75C86.2109 17.1458 86.1276 17.4792 85.9609 17.75C85.7943 18.0156 85.5781 18.2448 85.3125 18.4375C84.7448 18.8594 84.1094 19.0703 83.4062 19.0703C82.7344 19.0703 82.2031 18.9089 81.8125 18.5859C81.4896 18.3151 81.3281 17.9948 81.3281 17.625ZM88.5625 16.2656C88.5833 15.8125 88.6589 15.3802 88.7891 14.9688C88.9193 14.5521 89.0938 14.151 89.3125 13.7656C89.5312 13.375 89.7865 13.0078 90.0781 12.6641C90.375 12.3151 90.6953 12.0104 91.0391 11.75C91.7839 11.1927 92.5365 10.9141 93.2969 10.9141C94.1875 10.9141 94.7812 11.2812 95.0781 12.0156C95.1823 12.2656 95.2318 12.5625 95.2266 12.9062C95.2214 13.2448 95.1562 13.5599 95.0312 13.8516C94.9062 14.138 94.7318 14.401 94.5078 14.6406C94.2891 14.875 94.026 15.0859 93.7188 15.2734C93.4167 15.4609 93.0859 15.6198 92.7266 15.75C91.987 16.0104 91.1953 16.1458 90.3516 16.1562C90.3307 16.2292 90.3177 16.3385 90.3125 16.4844C90.3073 16.6302 90.3229 16.7943 90.3594 16.9766C90.3958 17.1536 90.4583 17.3125 90.5469 17.4531C90.7344 17.7656 91.0052 17.9219 91.3594 17.9219C91.9635 17.9219 92.5521 17.7448 93.125 17.3906C93.3281 17.2708 93.4922 17.1484 93.6172 17.0234C93.7474 16.8932 93.8594 16.8281 93.9531 16.8281C94.0469 16.8281 94.1276 16.8854 94.1953 17C94.2682 17.1094 94.3047 17.2344 94.3047 17.375C94.3047 17.651 94.2266 17.8906 94.0703 18.0938C93.4141 18.75 92.4375 19.0781 91.1406 19.0781C90.375 19.0781 89.7604 18.849 89.2969 18.3906C88.776 17.8698 88.5312 17.1615 88.5625 16.2656ZM93.125 11.9531C92.5781 11.9531 92.0521 12.3281 91.5469 13.0781C91.1198 13.724 90.776 14.4896 90.5156 15.375C91.3854 15.2865 92.1406 14.9427 92.7812 14.3438C93.3698 13.7812 93.6641 13.2422 93.6641 12.7266C93.6641 12.2109 93.4844 11.9531 93.125 11.9531Z" fill="url(#paint1_linear_29_29)"/>
<defs>
<linearGradient id="paint0_linear_29_29" x1="0.66832" y1="18.1098" x2="30.1078" y2="7.9886" gradientUnits="userSpaceOnUse">
<stop stop-color="#2FDA8D"/>
<stop offset="1" stop-color="#C9DA2F"/>
</linearGradient>
<linearGradient id="paint1_linear_29_29" x1="60.321" y1="-2.78947" x2="55.0955" y2="27.9457" gradientUnits="userSpaceOnUse">
<stop offset="0.507223" stop-color="#13F3A3"/>
<stop offset="1" stop-color="#04E393" stop-opacity="0"/>
</linearGradient>
</defs>
</svg>
